G04 #@! TF.GenerationSoftware,KiCad,Pcbnew,(5.1.10)-1*
G04 #@! TF.CreationDate,2022-05-26T00:57:47+10:00*
G04 #@! TF.ProjectId,UnlockManifolds,556e6c6f-636b-44d6-916e-69666f6c6473,rev?*
G04 #@! TF.SameCoordinates,Original*
G04 #@! TF.FileFunction,Paste,Bot*
G04 #@! TF.FilePolarity,Positive*
%FSLAX46Y46*%
G04 Gerber Fmt 4.6, Leading zero omitted, Abs format (unit mm)*
G04 Created by KiCad (PCBNEW (5.1.10)-1) date 2022-05-26 00:57:47*
%MOMM*%
%LPD*%
G01*
G04 APERTURE LIST*
%ADD10R,1.450000X1.150000*%
%ADD11R,1.150000X1.450000*%
G04 APERTURE END LIST*
D10*
X219760800Y-126096600D03*
X219760800Y-124296600D03*
X95326200Y-93588000D03*
X95326200Y-95388000D03*
X114782600Y-89320800D03*
X114782600Y-91120800D03*
X130429000Y-93588000D03*
X130429000Y-95388000D03*
X149809200Y-89320800D03*
X149809200Y-91120800D03*
X165379400Y-93613400D03*
X165379400Y-95413400D03*
X184734200Y-89320800D03*
X184734200Y-91120800D03*
X200431400Y-93588000D03*
X200431400Y-95388000D03*
X219760800Y-89320800D03*
X219760800Y-91120800D03*
X235331000Y-93588000D03*
X235331000Y-95388000D03*
X254812800Y-89320800D03*
X254812800Y-91120800D03*
X254787400Y-126122000D03*
X254787400Y-124322000D03*
X235331000Y-130490800D03*
X235331000Y-128690800D03*
X200406000Y-130440000D03*
X200406000Y-128640000D03*
X184810400Y-126122000D03*
X184810400Y-124322000D03*
X165379400Y-130414600D03*
X165379400Y-128614600D03*
X149733000Y-126122000D03*
X149733000Y-124322000D03*
X130403600Y-130440000D03*
X130403600Y-128640000D03*
X114757200Y-126122000D03*
X114757200Y-124322000D03*
X95377000Y-130389200D03*
X95377000Y-128589200D03*
D11*
X78983000Y-99949000D03*
X80783000Y-99949000D03*
X78983000Y-117856000D03*
X80783000Y-117856000D03*
G36*
G01*
X80283000Y-103193001D02*
X80283000Y-102292999D01*
G75*
G02*
X80532999Y-102043000I249999J0D01*
G01*
X81233001Y-102043000D01*
G75*
G02*
X81483000Y-102292999I0J-249999D01*
G01*
X81483000Y-103193001D01*
G75*
G02*
X81233001Y-103443000I-249999J0D01*
G01*
X80532999Y-103443000D01*
G75*
G02*
X80283000Y-103193001I0J249999D01*
G01*
G37*
G36*
G01*
X78283000Y-103193001D02*
X78283000Y-102292999D01*
G75*
G02*
X78532999Y-102043000I249999J0D01*
G01*
X79233001Y-102043000D01*
G75*
G02*
X79483000Y-102292999I0J-249999D01*
G01*
X79483000Y-103193001D01*
G75*
G02*
X79233001Y-103443000I-249999J0D01*
G01*
X78532999Y-103443000D01*
G75*
G02*
X78283000Y-103193001I0J249999D01*
G01*
G37*
G36*
G01*
X80283000Y-121100001D02*
X80283000Y-120199999D01*
G75*
G02*
X80532999Y-119950000I249999J0D01*
G01*
X81233001Y-119950000D01*
G75*
G02*
X81483000Y-120199999I0J-249999D01*
G01*
X81483000Y-121100001D01*
G75*
G02*
X81233001Y-121350000I-249999J0D01*
G01*
X80532999Y-121350000D01*
G75*
G02*
X80283000Y-121100001I0J249999D01*
G01*
G37*
G36*
G01*
X78283000Y-121100001D02*
X78283000Y-120199999D01*
G75*
G02*
X78532999Y-119950000I249999J0D01*
G01*
X79233001Y-119950000D01*
G75*
G02*
X79483000Y-120199999I0J-249999D01*
G01*
X79483000Y-121100001D01*
G75*
G02*
X79233001Y-121350000I-249999J0D01*
G01*
X78532999Y-121350000D01*
G75*
G02*
X78283000Y-121100001I0J249999D01*
G01*
G37*
G36*
G01*
X61322000Y-136201999D02*
X61322000Y-137102001D01*
G75*
G02*
X61072001Y-137352000I-249999J0D01*
G01*
X60371999Y-137352000D01*
G75*
G02*
X60122000Y-137102001I0J249999D01*
G01*
X60122000Y-136201999D01*
G75*
G02*
X60371999Y-135952000I249999J0D01*
G01*
X61072001Y-135952000D01*
G75*
G02*
X61322000Y-136201999I0J-249999D01*
G01*
G37*
G36*
G01*
X63322000Y-136201999D02*
X63322000Y-137102001D01*
G75*
G02*
X63072001Y-137352000I-249999J0D01*
G01*
X62371999Y-137352000D01*
G75*
G02*
X62122000Y-137102001I0J249999D01*
G01*
X62122000Y-136201999D01*
G75*
G02*
X62371999Y-135952000I249999J0D01*
G01*
X63072001Y-135952000D01*
G75*
G02*
X63322000Y-136201999I0J-249999D01*
G01*
G37*
M02*
