%FSLAX45Y45*%
G04 Gerber Fmt 4.5, Leading zero omitted, Abs format (unit mm)*
G04 Created by KiCad (PCBNEW (5.1.10)-1) date 2022-05-26 00:59:29*
%MOMM*%
%LPD*%
G01*
G04 APERTURE LIST*
%TA.AperFunction,Profile*%
%ADD10C,0.038100*%
%TD*%
%ADD11C,0.200000*%
%ADD12C,0.300000*%
G04 APERTURE END LIST*
D10*
X2500000Y-7800000D02*
X2500000Y-14300000D01*
X2500000Y-14300000D02*
X26200000Y-14300000D01*
X26200000Y-7800000D02*
X26200000Y-14300000D01*
X2500000Y-7800000D02*
X26200000Y-7800000D01*
D11*
X2716550Y-8025150D02*
X3036550Y-8345150D01*
X3036550Y-8025150D02*
X2716550Y-8345150D01*
X2862600Y-13440000D02*
X3182600Y-13760000D01*
X3182600Y-13440000D02*
X2862600Y-13760000D01*
X8742700Y-10946150D02*
X9062700Y-11266150D01*
X9062700Y-10946150D02*
X8742700Y-11266150D01*
X12110000Y-8216000D02*
X12430000Y-8536000D01*
X12430000Y-8216000D02*
X12110000Y-8536000D01*
X12110000Y-13440000D02*
X12430000Y-13760000D01*
X12430000Y-13440000D02*
X12110000Y-13760000D01*
X15610000Y-8216000D02*
X15930000Y-8536000D01*
X15930000Y-8216000D02*
X15610000Y-8536000D01*
X15610000Y-13440000D02*
X15930000Y-13760000D01*
X15930000Y-13440000D02*
X15610000Y-13760000D01*
X19110000Y-8216000D02*
X19430000Y-8536000D01*
X19430000Y-8216000D02*
X19110000Y-8536000D01*
X19110000Y-13440000D02*
X19430000Y-13760000D01*
X19430000Y-13440000D02*
X19110000Y-13760000D01*
X22610000Y-8216000D02*
X22930000Y-8536000D01*
X22930000Y-8216000D02*
X22610000Y-8536000D01*
X22610000Y-13440000D02*
X22930000Y-13760000D01*
X22930000Y-13440000D02*
X22610000Y-13760000D01*
X25356000Y-10890000D02*
X25676000Y-11210000D01*
X25676000Y-10890000D02*
X25356000Y-11210000D01*
X9675000Y-10100000D02*
G75*
G03*
X9675000Y-10100000I-175000J0D01*
G01*
X9675000Y-13600000D02*
G75*
G03*
X9675000Y-13600000I-175000J0D01*
G01*
X11691000Y-8376000D02*
G75*
G03*
X11691000Y-8376000I-175000J0D01*
G01*
X11691000Y-11876000D02*
G75*
G03*
X11691000Y-11876000I-175000J0D01*
G01*
X13175000Y-10100000D02*
G75*
G03*
X13175000Y-10100000I-175000J0D01*
G01*
X13175000Y-13600000D02*
G75*
G03*
X13175000Y-13600000I-175000J0D01*
G01*
X15191000Y-8376000D02*
G75*
G03*
X15191000Y-8376000I-175000J0D01*
G01*
X15191000Y-11876000D02*
G75*
G03*
X15191000Y-11876000I-175000J0D01*
G01*
X16675000Y-10100000D02*
G75*
G03*
X16675000Y-10100000I-175000J0D01*
G01*
X16675000Y-13600000D02*
G75*
G03*
X16675000Y-13600000I-175000J0D01*
G01*
X18691000Y-8376000D02*
G75*
G03*
X18691000Y-8376000I-175000J0D01*
G01*
X18691000Y-11876000D02*
G75*
G03*
X18691000Y-11876000I-175000J0D01*
G01*
X20175000Y-10100000D02*
G75*
G03*
X20175000Y-10100000I-175000J0D01*
G01*
X20175000Y-13600000D02*
G75*
G03*
X20175000Y-13600000I-175000J0D01*
G01*
X22191000Y-8376000D02*
G75*
G03*
X22191000Y-8376000I-175000J0D01*
G01*
X22191000Y-11876000D02*
G75*
G03*
X22191000Y-11876000I-175000J0D01*
G01*
X23675000Y-13600000D02*
G75*
G03*
X23675000Y-13600000I-175000J0D01*
G01*
X23701750Y-10100000D02*
G75*
G03*
X23701750Y-10100000I-175000J0D01*
G01*
X25691000Y-8376000D02*
G75*
G03*
X25691000Y-8376000I-175000J0D01*
G01*
X25691000Y-11876000D02*
G75*
G03*
X25691000Y-11876000I-175000J0D01*
G01*
D12*
X2784523Y-14767619D02*
X2784523Y-14467619D01*
X2855952Y-14467619D01*
X2898809Y-14481905D01*
X2927381Y-14510476D01*
X2941666Y-14539048D01*
X2955952Y-14596191D01*
X2955952Y-14639048D01*
X2941666Y-14696191D01*
X2927381Y-14724762D01*
X2898809Y-14753334D01*
X2855952Y-14767619D01*
X2784523Y-14767619D01*
X3084523Y-14767619D02*
X3084523Y-14567619D01*
X3084523Y-14624762D02*
X3098809Y-14596191D01*
X3113095Y-14581905D01*
X3141666Y-14567619D01*
X3170238Y-14567619D01*
X3270238Y-14767619D02*
X3270238Y-14567619D01*
X3270238Y-14467619D02*
X3255952Y-14481905D01*
X3270238Y-14496191D01*
X3284523Y-14481905D01*
X3270238Y-14467619D01*
X3270238Y-14496191D01*
X3455952Y-14767619D02*
X3427381Y-14753334D01*
X3413095Y-14724762D01*
X3413095Y-14467619D01*
X3613095Y-14767619D02*
X3584523Y-14753334D01*
X3570238Y-14724762D01*
X3570238Y-14467619D01*
X3955952Y-14767619D02*
X3955952Y-14467619D01*
X4055952Y-14681905D01*
X4155952Y-14467619D01*
X4155952Y-14767619D01*
X4427381Y-14767619D02*
X4427381Y-14610476D01*
X4413095Y-14581905D01*
X4384523Y-14567619D01*
X4327381Y-14567619D01*
X4298809Y-14581905D01*
X4427381Y-14753334D02*
X4398809Y-14767619D01*
X4327381Y-14767619D01*
X4298809Y-14753334D01*
X4284523Y-14724762D01*
X4284523Y-14696191D01*
X4298809Y-14667619D01*
X4327381Y-14653334D01*
X4398809Y-14653334D01*
X4427381Y-14639048D01*
X4570238Y-14567619D02*
X4570238Y-14867619D01*
X4570238Y-14581905D02*
X4598809Y-14567619D01*
X4655952Y-14567619D01*
X4684523Y-14581905D01*
X4698809Y-14596191D01*
X4713095Y-14624762D01*
X4713095Y-14710476D01*
X4698809Y-14739048D01*
X4684523Y-14753334D01*
X4655952Y-14767619D01*
X4598809Y-14767619D01*
X4570238Y-14753334D01*
X4841666Y-14739048D02*
X4855952Y-14753334D01*
X4841666Y-14767619D01*
X4827381Y-14753334D01*
X4841666Y-14739048D01*
X4841666Y-14767619D01*
X4841666Y-14581905D02*
X4855952Y-14596191D01*
X4841666Y-14610476D01*
X4827381Y-14596191D01*
X4841666Y-14581905D01*
X4841666Y-14610476D01*
X2178095Y-15101905D02*
X2498095Y-15421905D01*
X2498095Y-15101905D02*
X2178095Y-15421905D01*
X2755952Y-15097619D02*
X2941666Y-15097619D01*
X2841666Y-15211905D01*
X2884523Y-15211905D01*
X2913095Y-15226191D01*
X2927381Y-15240476D01*
X2941666Y-15269048D01*
X2941666Y-15340476D01*
X2927381Y-15369048D01*
X2913095Y-15383334D01*
X2884523Y-15397619D01*
X2798809Y-15397619D01*
X2770238Y-15383334D01*
X2755952Y-15369048D01*
X3070238Y-15369048D02*
X3084523Y-15383334D01*
X3070238Y-15397619D01*
X3055952Y-15383334D01*
X3070238Y-15369048D01*
X3070238Y-15397619D01*
X3198809Y-15126191D02*
X3213095Y-15111905D01*
X3241666Y-15097619D01*
X3313095Y-15097619D01*
X3341666Y-15111905D01*
X3355952Y-15126191D01*
X3370238Y-15154762D01*
X3370238Y-15183334D01*
X3355952Y-15226191D01*
X3184523Y-15397619D01*
X3370238Y-15397619D01*
X3555952Y-15097619D02*
X3584523Y-15097619D01*
X3613095Y-15111905D01*
X3627381Y-15126191D01*
X3641666Y-15154762D01*
X3655952Y-15211905D01*
X3655952Y-15283334D01*
X3641666Y-15340476D01*
X3627381Y-15369048D01*
X3613095Y-15383334D01*
X3584523Y-15397619D01*
X3555952Y-15397619D01*
X3527381Y-15383334D01*
X3513095Y-15369048D01*
X3498809Y-15340476D01*
X3484523Y-15283334D01*
X3484523Y-15211905D01*
X3498809Y-15154762D01*
X3513095Y-15126191D01*
X3527381Y-15111905D01*
X3555952Y-15097619D01*
X3841666Y-15097619D02*
X3870238Y-15097619D01*
X3898809Y-15111905D01*
X3913095Y-15126191D01*
X3927381Y-15154762D01*
X3941666Y-15211905D01*
X3941666Y-15283334D01*
X3927381Y-15340476D01*
X3913095Y-15369048D01*
X3898809Y-15383334D01*
X3870238Y-15397619D01*
X3841666Y-15397619D01*
X3813095Y-15383334D01*
X3798809Y-15369048D01*
X3784523Y-15340476D01*
X3770238Y-15283334D01*
X3770238Y-15211905D01*
X3784523Y-15154762D01*
X3798809Y-15126191D01*
X3813095Y-15111905D01*
X3841666Y-15097619D01*
X4070238Y-15397619D02*
X4070238Y-15197619D01*
X4070238Y-15226191D02*
X4084523Y-15211905D01*
X4113095Y-15197619D01*
X4155952Y-15197619D01*
X4184523Y-15211905D01*
X4198809Y-15240476D01*
X4198809Y-15397619D01*
X4198809Y-15240476D02*
X4213095Y-15211905D01*
X4241666Y-15197619D01*
X4284523Y-15197619D01*
X4313095Y-15211905D01*
X4327381Y-15240476D01*
X4327381Y-15397619D01*
X4470238Y-15397619D02*
X4470238Y-15197619D01*
X4470238Y-15226191D02*
X4484523Y-15211905D01*
X4513095Y-15197619D01*
X4555952Y-15197619D01*
X4584523Y-15211905D01*
X4598809Y-15240476D01*
X4598809Y-15397619D01*
X4598809Y-15240476D02*
X4613095Y-15211905D01*
X4641666Y-15197619D01*
X4684523Y-15197619D01*
X4713095Y-15211905D01*
X4727381Y-15240476D01*
X4727381Y-15397619D01*
X5313095Y-15083334D02*
X5055952Y-15469048D01*
X5698809Y-15097619D02*
X5727381Y-15097619D01*
X5755952Y-15111905D01*
X5770238Y-15126191D01*
X5784523Y-15154762D01*
X5798809Y-15211905D01*
X5798809Y-15283334D01*
X5784523Y-15340476D01*
X5770238Y-15369048D01*
X5755952Y-15383334D01*
X5727381Y-15397619D01*
X5698809Y-15397619D01*
X5670238Y-15383334D01*
X5655952Y-15369048D01*
X5641666Y-15340476D01*
X5627381Y-15283334D01*
X5627381Y-15211905D01*
X5641666Y-15154762D01*
X5655952Y-15126191D01*
X5670238Y-15111905D01*
X5698809Y-15097619D01*
X5927381Y-15369048D02*
X5941666Y-15383334D01*
X5927381Y-15397619D01*
X5913095Y-15383334D01*
X5927381Y-15369048D01*
X5927381Y-15397619D01*
X6227381Y-15397619D02*
X6055952Y-15397619D01*
X6141666Y-15397619D02*
X6141666Y-15097619D01*
X6113095Y-15140476D01*
X6084523Y-15169048D01*
X6055952Y-15183334D01*
X6341666Y-15126191D02*
X6355952Y-15111905D01*
X6384523Y-15097619D01*
X6455952Y-15097619D01*
X6484523Y-15111905D01*
X6498809Y-15126191D01*
X6513095Y-15154762D01*
X6513095Y-15183334D01*
X6498809Y-15226191D01*
X6327381Y-15397619D01*
X6513095Y-15397619D01*
X6770238Y-15097619D02*
X6713095Y-15097619D01*
X6684523Y-15111905D01*
X6670238Y-15126191D01*
X6641666Y-15169048D01*
X6627381Y-15226191D01*
X6627381Y-15340476D01*
X6641666Y-15369048D01*
X6655952Y-15383334D01*
X6684523Y-15397619D01*
X6741666Y-15397619D01*
X6770238Y-15383334D01*
X6784523Y-15369048D01*
X6798809Y-15340476D01*
X6798809Y-15269048D01*
X6784523Y-15240476D01*
X6770238Y-15226191D01*
X6741666Y-15211905D01*
X6684523Y-15211905D01*
X6655952Y-15226191D01*
X6641666Y-15240476D01*
X6627381Y-15269048D01*
X6984523Y-15097619D02*
X7013095Y-15097619D01*
X7041666Y-15111905D01*
X7055952Y-15126191D01*
X7070238Y-15154762D01*
X7084523Y-15211905D01*
X7084523Y-15283334D01*
X7070238Y-15340476D01*
X7055952Y-15369048D01*
X7041666Y-15383334D01*
X7013095Y-15397619D01*
X6984523Y-15397619D01*
X6955952Y-15383334D01*
X6941666Y-15369048D01*
X6927381Y-15340476D01*
X6913095Y-15283334D01*
X6913095Y-15211905D01*
X6927381Y-15154762D01*
X6941666Y-15126191D01*
X6955952Y-15111905D01*
X6984523Y-15097619D01*
X7198809Y-15097619D02*
X7198809Y-15154762D01*
X7313095Y-15097619D02*
X7313095Y-15154762D01*
X7755952Y-15511905D02*
X7741666Y-15497619D01*
X7713095Y-15454762D01*
X7698809Y-15426191D01*
X7684523Y-15383334D01*
X7670238Y-15311905D01*
X7670238Y-15254762D01*
X7684523Y-15183334D01*
X7698809Y-15140476D01*
X7713095Y-15111905D01*
X7741666Y-15069048D01*
X7755952Y-15054762D01*
X8027381Y-15397619D02*
X7855952Y-15397619D01*
X7941666Y-15397619D02*
X7941666Y-15097619D01*
X7913095Y-15140476D01*
X7884523Y-15169048D01*
X7855952Y-15183334D01*
X8141666Y-15126191D02*
X8155952Y-15111905D01*
X8184523Y-15097619D01*
X8255952Y-15097619D01*
X8284523Y-15111905D01*
X8298809Y-15126191D01*
X8313095Y-15154762D01*
X8313095Y-15183334D01*
X8298809Y-15226191D01*
X8127381Y-15397619D01*
X8313095Y-15397619D01*
X8670238Y-15397619D02*
X8670238Y-15097619D01*
X8798809Y-15397619D02*
X8798809Y-15240476D01*
X8784523Y-15211905D01*
X8755952Y-15197619D01*
X8713095Y-15197619D01*
X8684523Y-15211905D01*
X8670238Y-15226191D01*
X8984523Y-15397619D02*
X8955952Y-15383334D01*
X8941666Y-15369048D01*
X8927381Y-15340476D01*
X8927381Y-15254762D01*
X8941666Y-15226191D01*
X8955952Y-15211905D01*
X8984523Y-15197619D01*
X9027381Y-15197619D01*
X9055952Y-15211905D01*
X9070238Y-15226191D01*
X9084523Y-15254762D01*
X9084523Y-15340476D01*
X9070238Y-15369048D01*
X9055952Y-15383334D01*
X9027381Y-15397619D01*
X8984523Y-15397619D01*
X9255952Y-15397619D02*
X9227381Y-15383334D01*
X9213095Y-15354762D01*
X9213095Y-15097619D01*
X9484523Y-15383334D02*
X9455952Y-15397619D01*
X9398809Y-15397619D01*
X9370238Y-15383334D01*
X9355952Y-15354762D01*
X9355952Y-15240476D01*
X9370238Y-15211905D01*
X9398809Y-15197619D01*
X9455952Y-15197619D01*
X9484523Y-15211905D01*
X9498809Y-15240476D01*
X9498809Y-15269048D01*
X9355952Y-15297619D01*
X9613095Y-15383334D02*
X9641666Y-15397619D01*
X9698809Y-15397619D01*
X9727381Y-15383334D01*
X9741666Y-15354762D01*
X9741666Y-15340476D01*
X9727381Y-15311905D01*
X9698809Y-15297619D01*
X9655952Y-15297619D01*
X9627381Y-15283334D01*
X9613095Y-15254762D01*
X9613095Y-15240476D01*
X9627381Y-15211905D01*
X9655952Y-15197619D01*
X9698809Y-15197619D01*
X9727381Y-15211905D01*
X9841666Y-15511905D02*
X9855952Y-15497619D01*
X9884523Y-15454762D01*
X9898809Y-15426191D01*
X9913095Y-15383334D01*
X9927381Y-15311905D01*
X9927381Y-15254762D01*
X9913095Y-15183334D01*
X9898809Y-15140476D01*
X9884523Y-15111905D01*
X9855952Y-15069048D01*
X9841666Y-15054762D01*
X10384523Y-15511905D02*
X10370238Y-15497619D01*
X10341666Y-15454762D01*
X10327381Y-15426191D01*
X10313095Y-15383334D01*
X10298809Y-15311905D01*
X10298809Y-15254762D01*
X10313095Y-15183334D01*
X10327381Y-15140476D01*
X10341666Y-15111905D01*
X10370238Y-15069048D01*
X10384523Y-15054762D01*
X10498809Y-15197619D02*
X10498809Y-15397619D01*
X10498809Y-15226191D02*
X10513095Y-15211905D01*
X10541666Y-15197619D01*
X10584523Y-15197619D01*
X10613095Y-15211905D01*
X10627381Y-15240476D01*
X10627381Y-15397619D01*
X10813095Y-15397619D02*
X10784523Y-15383334D01*
X10770238Y-15369048D01*
X10755952Y-15340476D01*
X10755952Y-15254762D01*
X10770238Y-15226191D01*
X10784523Y-15211905D01*
X10813095Y-15197619D01*
X10855952Y-15197619D01*
X10884523Y-15211905D01*
X10898809Y-15226191D01*
X10913095Y-15254762D01*
X10913095Y-15340476D01*
X10898809Y-15369048D01*
X10884523Y-15383334D01*
X10855952Y-15397619D01*
X10813095Y-15397619D01*
X10998809Y-15197619D02*
X11113095Y-15197619D01*
X11041666Y-15097619D02*
X11041666Y-15354762D01*
X11055952Y-15383334D01*
X11084523Y-15397619D01*
X11113095Y-15397619D01*
X11441666Y-15197619D02*
X11441666Y-15497619D01*
X11441666Y-15211905D02*
X11470238Y-15197619D01*
X11527381Y-15197619D01*
X11555952Y-15211905D01*
X11570238Y-15226191D01*
X11584523Y-15254762D01*
X11584523Y-15340476D01*
X11570238Y-15369048D01*
X11555952Y-15383334D01*
X11527381Y-15397619D01*
X11470238Y-15397619D01*
X11441666Y-15383334D01*
X11755952Y-15397619D02*
X11727381Y-15383334D01*
X11713095Y-15354762D01*
X11713095Y-15097619D01*
X11998809Y-15397619D02*
X11998809Y-15240476D01*
X11984523Y-15211905D01*
X11955952Y-15197619D01*
X11898809Y-15197619D01*
X11870238Y-15211905D01*
X11998809Y-15383334D02*
X11970238Y-15397619D01*
X11898809Y-15397619D01*
X11870238Y-15383334D01*
X11855952Y-15354762D01*
X11855952Y-15326191D01*
X11870238Y-15297619D01*
X11898809Y-15283334D01*
X11970238Y-15283334D01*
X11998809Y-15269048D01*
X12098809Y-15197619D02*
X12213095Y-15197619D01*
X12141666Y-15097619D02*
X12141666Y-15354762D01*
X12155952Y-15383334D01*
X12184523Y-15397619D01*
X12213095Y-15397619D01*
X12427381Y-15383334D02*
X12398809Y-15397619D01*
X12341666Y-15397619D01*
X12313095Y-15383334D01*
X12298809Y-15354762D01*
X12298809Y-15240476D01*
X12313095Y-15211905D01*
X12341666Y-15197619D01*
X12398809Y-15197619D01*
X12427381Y-15211905D01*
X12441666Y-15240476D01*
X12441666Y-15269048D01*
X12298809Y-15297619D01*
X12698809Y-15397619D02*
X12698809Y-15097619D01*
X12698809Y-15383334D02*
X12670238Y-15397619D01*
X12613095Y-15397619D01*
X12584523Y-15383334D01*
X12570238Y-15369048D01*
X12555952Y-15340476D01*
X12555952Y-15254762D01*
X12570238Y-15226191D01*
X12584523Y-15211905D01*
X12613095Y-15197619D01*
X12670238Y-15197619D01*
X12698809Y-15211905D01*
X12813095Y-15511905D02*
X12827381Y-15497619D01*
X12855952Y-15454762D01*
X12870238Y-15426191D01*
X12884523Y-15383334D01*
X12898809Y-15311905D01*
X12898809Y-15254762D01*
X12884523Y-15183334D01*
X12870238Y-15140476D01*
X12855952Y-15111905D01*
X12827381Y-15069048D01*
X12813095Y-15054762D01*
X2498095Y-15711905D02*
G75*
G03*
X2498095Y-15711905I-175000J0D01*
G01*
X2755952Y-15547619D02*
X2941666Y-15547619D01*
X2841666Y-15661905D01*
X2884523Y-15661905D01*
X2913095Y-15676191D01*
X2927381Y-15690476D01*
X2941666Y-15719048D01*
X2941666Y-15790476D01*
X2927381Y-15819048D01*
X2913095Y-15833334D01*
X2884523Y-15847619D01*
X2798809Y-15847619D01*
X2770238Y-15833334D01*
X2755952Y-15819048D01*
X3070238Y-15819048D02*
X3084523Y-15833334D01*
X3070238Y-15847619D01*
X3055952Y-15833334D01*
X3070238Y-15819048D01*
X3070238Y-15847619D01*
X3355952Y-15547619D02*
X3213095Y-15547619D01*
X3198809Y-15690476D01*
X3213095Y-15676191D01*
X3241666Y-15661905D01*
X3313095Y-15661905D01*
X3341666Y-15676191D01*
X3355952Y-15690476D01*
X3370238Y-15719048D01*
X3370238Y-15790476D01*
X3355952Y-15819048D01*
X3341666Y-15833334D01*
X3313095Y-15847619D01*
X3241666Y-15847619D01*
X3213095Y-15833334D01*
X3198809Y-15819048D01*
X3555952Y-15547619D02*
X3584523Y-15547619D01*
X3613095Y-15561905D01*
X3627381Y-15576191D01*
X3641666Y-15604762D01*
X3655952Y-15661905D01*
X3655952Y-15733334D01*
X3641666Y-15790476D01*
X3627381Y-15819048D01*
X3613095Y-15833334D01*
X3584523Y-15847619D01*
X3555952Y-15847619D01*
X3527381Y-15833334D01*
X3513095Y-15819048D01*
X3498809Y-15790476D01*
X3484523Y-15733334D01*
X3484523Y-15661905D01*
X3498809Y-15604762D01*
X3513095Y-15576191D01*
X3527381Y-15561905D01*
X3555952Y-15547619D01*
X3841666Y-15547619D02*
X3870238Y-15547619D01*
X3898809Y-15561905D01*
X3913095Y-15576191D01*
X3927381Y-15604762D01*
X3941666Y-15661905D01*
X3941666Y-15733334D01*
X3927381Y-15790476D01*
X3913095Y-15819048D01*
X3898809Y-15833334D01*
X3870238Y-15847619D01*
X3841666Y-15847619D01*
X3813095Y-15833334D01*
X3798809Y-15819048D01*
X3784523Y-15790476D01*
X3770238Y-15733334D01*
X3770238Y-15661905D01*
X3784523Y-15604762D01*
X3798809Y-15576191D01*
X3813095Y-15561905D01*
X3841666Y-15547619D01*
X4070238Y-15847619D02*
X4070238Y-15647619D01*
X4070238Y-15676191D02*
X4084523Y-15661905D01*
X4113095Y-15647619D01*
X4155952Y-15647619D01*
X4184523Y-15661905D01*
X4198809Y-15690476D01*
X4198809Y-15847619D01*
X4198809Y-15690476D02*
X4213095Y-15661905D01*
X4241666Y-15647619D01*
X4284523Y-15647619D01*
X4313095Y-15661905D01*
X4327381Y-15690476D01*
X4327381Y-15847619D01*
X4470238Y-15847619D02*
X4470238Y-15647619D01*
X4470238Y-15676191D02*
X4484523Y-15661905D01*
X4513095Y-15647619D01*
X4555952Y-15647619D01*
X4584523Y-15661905D01*
X4598809Y-15690476D01*
X4598809Y-15847619D01*
X4598809Y-15690476D02*
X4613095Y-15661905D01*
X4641666Y-15647619D01*
X4684523Y-15647619D01*
X4713095Y-15661905D01*
X4727381Y-15690476D01*
X4727381Y-15847619D01*
X5313095Y-15533334D02*
X5055952Y-15919048D01*
X5698809Y-15547619D02*
X5727381Y-15547619D01*
X5755952Y-15561905D01*
X5770238Y-15576191D01*
X5784523Y-15604762D01*
X5798809Y-15661905D01*
X5798809Y-15733334D01*
X5784523Y-15790476D01*
X5770238Y-15819048D01*
X5755952Y-15833334D01*
X5727381Y-15847619D01*
X5698809Y-15847619D01*
X5670238Y-15833334D01*
X5655952Y-15819048D01*
X5641666Y-15790476D01*
X5627381Y-15733334D01*
X5627381Y-15661905D01*
X5641666Y-15604762D01*
X5655952Y-15576191D01*
X5670238Y-15561905D01*
X5698809Y-15547619D01*
X5927381Y-15819048D02*
X5941666Y-15833334D01*
X5927381Y-15847619D01*
X5913095Y-15833334D01*
X5927381Y-15819048D01*
X5927381Y-15847619D01*
X6227381Y-15847619D02*
X6055952Y-15847619D01*
X6141666Y-15847619D02*
X6141666Y-15547619D01*
X6113095Y-15590476D01*
X6084523Y-15619048D01*
X6055952Y-15633334D01*
X6327381Y-15547619D02*
X6513095Y-15547619D01*
X6413095Y-15661905D01*
X6455952Y-15661905D01*
X6484523Y-15676191D01*
X6498809Y-15690476D01*
X6513095Y-15719048D01*
X6513095Y-15790476D01*
X6498809Y-15819048D01*
X6484523Y-15833334D01*
X6455952Y-15847619D01*
X6370238Y-15847619D01*
X6341666Y-15833334D01*
X6327381Y-15819048D01*
X6613095Y-15547619D02*
X6813095Y-15547619D01*
X6684523Y-15847619D01*
X6970238Y-15676191D02*
X6941666Y-15661905D01*
X6927381Y-15647619D01*
X6913095Y-15619048D01*
X6913095Y-15604762D01*
X6927381Y-15576191D01*
X6941666Y-15561905D01*
X6970238Y-15547619D01*
X7027381Y-15547619D01*
X7055952Y-15561905D01*
X7070238Y-15576191D01*
X7084523Y-15604762D01*
X7084523Y-15619048D01*
X7070238Y-15647619D01*
X7055952Y-15661905D01*
X7027381Y-15676191D01*
X6970238Y-15676191D01*
X6941666Y-15690476D01*
X6927381Y-15704762D01*
X6913095Y-15733334D01*
X6913095Y-15790476D01*
X6927381Y-15819048D01*
X6941666Y-15833334D01*
X6970238Y-15847619D01*
X7027381Y-15847619D01*
X7055952Y-15833334D01*
X7070238Y-15819048D01*
X7084523Y-15790476D01*
X7084523Y-15733334D01*
X7070238Y-15704762D01*
X7055952Y-15690476D01*
X7027381Y-15676191D01*
X7198809Y-15547619D02*
X7198809Y-15604762D01*
X7313095Y-15547619D02*
X7313095Y-15604762D01*
X7755952Y-15961905D02*
X7741666Y-15947619D01*
X7713095Y-15904762D01*
X7698809Y-15876191D01*
X7684523Y-15833334D01*
X7670238Y-15761905D01*
X7670238Y-15704762D01*
X7684523Y-15633334D01*
X7698809Y-15590476D01*
X7713095Y-15561905D01*
X7741666Y-15519048D01*
X7755952Y-15504762D01*
X7855952Y-15576191D02*
X7870238Y-15561905D01*
X7898809Y-15547619D01*
X7970238Y-15547619D01*
X7998809Y-15561905D01*
X8013095Y-15576191D01*
X8027381Y-15604762D01*
X8027381Y-15633334D01*
X8013095Y-15676191D01*
X7841666Y-15847619D01*
X8027381Y-15847619D01*
X8213095Y-15547619D02*
X8241666Y-15547619D01*
X8270238Y-15561905D01*
X8284523Y-15576191D01*
X8298809Y-15604762D01*
X8313095Y-15661905D01*
X8313095Y-15733334D01*
X8298809Y-15790476D01*
X8284523Y-15819048D01*
X8270238Y-15833334D01*
X8241666Y-15847619D01*
X8213095Y-15847619D01*
X8184523Y-15833334D01*
X8170238Y-15819048D01*
X8155952Y-15790476D01*
X8141666Y-15733334D01*
X8141666Y-15661905D01*
X8155952Y-15604762D01*
X8170238Y-15576191D01*
X8184523Y-15561905D01*
X8213095Y-15547619D01*
X8670238Y-15847619D02*
X8670238Y-15547619D01*
X8798809Y-15847619D02*
X8798809Y-15690476D01*
X8784523Y-15661905D01*
X8755952Y-15647619D01*
X8713095Y-15647619D01*
X8684523Y-15661905D01*
X8670238Y-15676191D01*
X8984523Y-15847619D02*
X8955952Y-15833334D01*
X8941666Y-15819048D01*
X8927381Y-15790476D01*
X8927381Y-15704762D01*
X8941666Y-15676191D01*
X8955952Y-15661905D01*
X8984523Y-15647619D01*
X9027381Y-15647619D01*
X9055952Y-15661905D01*
X9070238Y-15676191D01*
X9084523Y-15704762D01*
X9084523Y-15790476D01*
X9070238Y-15819048D01*
X9055952Y-15833334D01*
X9027381Y-15847619D01*
X8984523Y-15847619D01*
X9255952Y-15847619D02*
X9227381Y-15833334D01*
X9213095Y-15804762D01*
X9213095Y-15547619D01*
X9484523Y-15833334D02*
X9455952Y-15847619D01*
X9398809Y-15847619D01*
X9370238Y-15833334D01*
X9355952Y-15804762D01*
X9355952Y-15690476D01*
X9370238Y-15661905D01*
X9398809Y-15647619D01*
X9455952Y-15647619D01*
X9484523Y-15661905D01*
X9498809Y-15690476D01*
X9498809Y-15719048D01*
X9355952Y-15747619D01*
X9613095Y-15833334D02*
X9641666Y-15847619D01*
X9698809Y-15847619D01*
X9727381Y-15833334D01*
X9741666Y-15804762D01*
X9741666Y-15790476D01*
X9727381Y-15761905D01*
X9698809Y-15747619D01*
X9655952Y-15747619D01*
X9627381Y-15733334D01*
X9613095Y-15704762D01*
X9613095Y-15690476D01*
X9627381Y-15661905D01*
X9655952Y-15647619D01*
X9698809Y-15647619D01*
X9727381Y-15661905D01*
X9841666Y-15961905D02*
X9855952Y-15947619D01*
X9884523Y-15904762D01*
X9898809Y-15876191D01*
X9913095Y-15833334D01*
X9927381Y-15761905D01*
X9927381Y-15704762D01*
X9913095Y-15633334D01*
X9898809Y-15590476D01*
X9884523Y-15561905D01*
X9855952Y-15519048D01*
X9841666Y-15504762D01*
X10384523Y-15961905D02*
X10370238Y-15947619D01*
X10341666Y-15904762D01*
X10327381Y-15876191D01*
X10313095Y-15833334D01*
X10298809Y-15761905D01*
X10298809Y-15704762D01*
X10313095Y-15633334D01*
X10327381Y-15590476D01*
X10341666Y-15561905D01*
X10370238Y-15519048D01*
X10384523Y-15504762D01*
X10498809Y-15647619D02*
X10498809Y-15847619D01*
X10498809Y-15676191D02*
X10513095Y-15661905D01*
X10541666Y-15647619D01*
X10584523Y-15647619D01*
X10613095Y-15661905D01*
X10627381Y-15690476D01*
X10627381Y-15847619D01*
X10813095Y-15847619D02*
X10784523Y-15833334D01*
X10770238Y-15819048D01*
X10755952Y-15790476D01*
X10755952Y-15704762D01*
X10770238Y-15676191D01*
X10784523Y-15661905D01*
X10813095Y-15647619D01*
X10855952Y-15647619D01*
X10884523Y-15661905D01*
X10898809Y-15676191D01*
X10913095Y-15704762D01*
X10913095Y-15790476D01*
X10898809Y-15819048D01*
X10884523Y-15833334D01*
X10855952Y-15847619D01*
X10813095Y-15847619D01*
X10998809Y-15647619D02*
X11113095Y-15647619D01*
X11041666Y-15547619D02*
X11041666Y-15804762D01*
X11055952Y-15833334D01*
X11084523Y-15847619D01*
X11113095Y-15847619D01*
X11441666Y-15647619D02*
X11441666Y-15947619D01*
X11441666Y-15661905D02*
X11470238Y-15647619D01*
X11527381Y-15647619D01*
X11555952Y-15661905D01*
X11570238Y-15676191D01*
X11584523Y-15704762D01*
X11584523Y-15790476D01*
X11570238Y-15819048D01*
X11555952Y-15833334D01*
X11527381Y-15847619D01*
X11470238Y-15847619D01*
X11441666Y-15833334D01*
X11755952Y-15847619D02*
X11727381Y-15833334D01*
X11713095Y-15804762D01*
X11713095Y-15547619D01*
X11998809Y-15847619D02*
X11998809Y-15690476D01*
X11984523Y-15661905D01*
X11955952Y-15647619D01*
X11898809Y-15647619D01*
X11870238Y-15661905D01*
X11998809Y-15833334D02*
X11970238Y-15847619D01*
X11898809Y-15847619D01*
X11870238Y-15833334D01*
X11855952Y-15804762D01*
X11855952Y-15776191D01*
X11870238Y-15747619D01*
X11898809Y-15733334D01*
X11970238Y-15733334D01*
X11998809Y-15719048D01*
X12098809Y-15647619D02*
X12213095Y-15647619D01*
X12141666Y-15547619D02*
X12141666Y-15804762D01*
X12155952Y-15833334D01*
X12184523Y-15847619D01*
X12213095Y-15847619D01*
X12427381Y-15833334D02*
X12398809Y-15847619D01*
X12341666Y-15847619D01*
X12313095Y-15833334D01*
X12298809Y-15804762D01*
X12298809Y-15690476D01*
X12313095Y-15661905D01*
X12341666Y-15647619D01*
X12398809Y-15647619D01*
X12427381Y-15661905D01*
X12441666Y-15690476D01*
X12441666Y-15719048D01*
X12298809Y-15747619D01*
X12698809Y-15847619D02*
X12698809Y-15547619D01*
X12698809Y-15833334D02*
X12670238Y-15847619D01*
X12613095Y-15847619D01*
X12584523Y-15833334D01*
X12570238Y-15819048D01*
X12555952Y-15790476D01*
X12555952Y-15704762D01*
X12570238Y-15676191D01*
X12584523Y-15661905D01*
X12613095Y-15647619D01*
X12670238Y-15647619D01*
X12698809Y-15661905D01*
X12813095Y-15961905D02*
X12827381Y-15947619D01*
X12855952Y-15904762D01*
X12870238Y-15876191D01*
X12884523Y-15833334D01*
X12898809Y-15761905D01*
X12898809Y-15704762D01*
X12884523Y-15633334D01*
X12870238Y-15590476D01*
X12855952Y-15561905D01*
X12827381Y-15519048D01*
X12813095Y-15504762D01*
M02*
