M48
; DRILL file {KiCad (5.1.10)-1} date 05/26/22 00:59:10
; FORMAT={-:-/ absolute / metric / decimal}
; #@! TF.CreationDate,2022-05-26T00:59:10+10:00
; #@! TF.GenerationSoftware,Kicad,Pcbnew,(5.1.10)-1
; #@! TF.FileFunction,NonPlated,1,4,NPTH
FMAT,2
METRIC
T1C3.200
T2C3.500
%
G90
G05
T1
X28.765Y-81.852
X30.226Y-136.0
X89.027Y-111.061
X122.7Y-83.76
X122.7Y-136.0
X157.7Y-83.76
X157.7Y-136.0
X192.7Y-83.76
X192.7Y-136.0
X227.7Y-83.76
X227.7Y-136.0
X255.16Y-110.5
T2
X95.0Y-101.0
X95.0Y-136.0
X115.16Y-83.76
X115.16Y-118.76
X130.0Y-101.0
X130.0Y-136.0
X150.16Y-83.76
X150.16Y-118.76
X165.0Y-101.0
X165.0Y-136.0
X185.16Y-83.76
X185.16Y-118.76
X200.0Y-101.0
X200.0Y-136.0
X220.16Y-83.76
X220.16Y-118.76
X235.0Y-136.0
X235.267Y-101.0
X255.16Y-83.76
X255.16Y-118.76
T0
M30
