M48
; DRILL file {KiCad (5.1.10)-1} date 05/26/22 00:59:10
; FORMAT={-:-/ absolute / metric / decimal}
; #@! TF.CreationDate,2022-05-26T00:59:10+10:00
; #@! TF.GenerationSoftware,Kicad,Pcbnew,(5.1.10)-1
; #@! TF.FileFunction,Plated,1,4,PTH
FMAT,2
METRIC
T1C0.300
T2C0.800
T3C0.870
T4C1.000
T5C1.100
T6C1.150
%
G90
G05
T1
X33.786Y-117.852
X34.671Y-90.678
X35.052Y-107.188
X46.545Y-108.902
X46.545Y-114.617
X50.523Y-113.053
X51.371Y-113.03
X55.562Y-104.521
X55.959Y-105.156
X56.586Y-119.189
X58.547Y-97.282
X59.055Y-118.237
X59.182Y-105.156
X61.468Y-104.14
X63.5Y-114.046
X69.659Y-120.65
X69.787Y-114.744
X69.913Y-112.204
X70.929Y-128.778
X72.771Y-112.268
X76.454Y-107.886
X76.454Y-106.553
X76.517Y-97.727
X76.517Y-98.996
X76.644Y-103.442
X76.708Y-102.362
X76.708Y-113.792
X77.251Y-110.26
X78.105Y-110.363
X78.74Y-93.599
X78.803Y-115.062
X78.994Y-116.332
X80.01Y-122.682
X81.788Y-99.949
X81.788Y-117.856
X81.915Y-108.839
X81.915Y-114.808
X82.042Y-120.65
X82.169Y-95.504
X82.359Y-102.743
X82.931Y-128.841
X86.622Y-126.238
X88.646Y-127.254
X89.408Y-92.075
X90.424Y-92.837
X91.313Y-96.266
X95.377Y-92.456
X95.377Y-131.508
X95.377Y-127.572
X96.393Y-96.203
X96.631Y-116.635
X96.647Y-115.316
X97.282Y-115.959
X97.282Y-117.348
X98.044Y-132.207
X99.377Y-94.996
X99.949Y-103.886
X99.949Y-106.426
X99.949Y-102.489
X100.012Y-107.696
X100.33Y-94.107
X100.346Y-103.211
X100.489Y-104.513
X100.584Y-89.197
X101.346Y-93.345
X102.298Y-124.714
X102.489Y-122.682
X102.567Y-105.162
X102.616Y-108.966
X103.06Y-128.905
X103.632Y-115.959
X103.632Y-118.237
X105.029Y-115.951
X107.577Y-109.601
X107.632Y-107.061
X110.109Y-105.791
X110.158Y-115.316
X110.172Y-108.331
X110.32Y-116.66
X110.641Y-117.424
X110.94Y-115.443
X111.252Y-124.833
X112.141Y-87.503
X112.141Y-122.174
X113.665Y-89.154
X114.681Y-127.127
X114.794Y-123.317
X114.808Y-92.138
X115.951Y-92.964
X119.38Y-132.207
X119.507Y-116.967
X119.802Y-128.292
X119.888Y-116.205
X121.031Y-116.205
X121.666Y-115.443
X123.38Y-127.953
X124.079Y-104.521
X125.095Y-104.394
X125.92Y-88.074
X126.111Y-104.394
X126.111Y-89.408
X127.127Y-104.394
X130.365Y-127.635
X130.429Y-96.329
X130.429Y-92.583
X130.429Y-131.445
X132.08Y-132.08
X134.505Y-102.565
X134.599Y-104.031
X134.62Y-95.059
X135.001Y-106.426
X135.001Y-107.696
X135.066Y-103.191
X135.139Y-104.519
X135.255Y-94.234
X137.096Y-124.269
X137.287Y-129.35
X137.541Y-105.156
X137.541Y-108.966
X139.954Y-115.443
X140.081Y-104.513
X142.558Y-107.061
X142.621Y-109.601
X145.097Y-108.331
X145.161Y-105.791
X145.669Y-115.308
X146.194Y-124.774
X146.558Y-115.316
X146.685Y-116.332
X147.193Y-87.376
X147.193Y-122.428
X149.719Y-123.317
X149.733Y-127.254
X149.797Y-92.138
X149.86Y-88.265
X153.67Y-132.08
X153.67Y-116.205
X153.924Y-121.793
X154.057Y-115.437
X155.448Y-115.443
X155.448Y-128.079
X159.321Y-104.203
X160.401Y-104.267
X160.528Y-87.694
X161.417Y-104.14
X165.354Y-127.508
X165.354Y-131.445
X165.417Y-96.456
X165.481Y-92.583
X167.894Y-132.334
X168.93Y-103.866
X169.672Y-95.123
X169.926Y-107.696
X169.989Y-106.426
X170.053Y-103.124
X170.117Y-94.17
X170.125Y-104.505
X170.37Y-123.952
X170.498Y-129.032
X172.529Y-108.966
X172.593Y-105.156
X175.133Y-116.078
X177.609Y-107.061
X177.609Y-109.601
X180.149Y-105.791
X180.149Y-108.331
X181.292Y-124.871
X181.504Y-115.308
X182.118Y-115.697
X182.245Y-122.428
X184.721Y-88.265
X184.721Y-92.202
X184.785Y-123.38
X184.799Y-127.191
X189.103Y-115.951
X189.865Y-132.334
X190.119Y-115.316
X191.578Y-128.332
X192.786Y-125.031
X195.469Y-104.505
X196.108Y-103.866
X200.406Y-131.445
X200.406Y-96.393
X200.406Y-127.572
X200.469Y-92.583
X203.581Y-103.759
X203.798Y-104.529
X204.534Y-95.186
X204.978Y-106.437
X205.041Y-129.413
X205.041Y-112.776
X205.105Y-94.234
X205.994Y-107.696
X206.184Y-111.506
X207.581Y-105.156
X207.645Y-114.046
X208.661Y-108.966
X208.661Y-110.236
X210.058Y-104.394
X210.058Y-115.951
X211.264Y-109.601
X211.264Y-112.141
X212.598Y-107.061
X212.661Y-114.681
X213.931Y-108.331
X214.058Y-110.871
X215.138Y-105.791
X215.138Y-113.411
X216.218Y-124.82
X217.17Y-115.57
X217.297Y-122.695
X219.71Y-127.127
X219.71Y-92.138
X219.773Y-88.265
X219.787Y-123.317
X223.647Y-115.57
X225.552Y-127.953
X231.775Y-104.14
X235.331Y-92.583
X235.331Y-96.393
X235.331Y-127.635
X235.331Y-131.508
X238.887Y-104.14
X239.585Y-95.25
X239.966Y-106.426
X239.967Y-94.107
X240.093Y-112.776
X240.411Y-129.222
X241.046Y-107.696
X241.364Y-111.506
X242.062Y-104.648
X242.57Y-114.046
X243.586Y-108.966
X243.84Y-110.236
X245.618Y-112.522
X246.126Y-109.22
X247.142Y-115.189
X247.269Y-106.68
X248.158Y-111.506
X248.285Y-107.696
X249.809Y-105.283
X249.809Y-113.919
X251.206Y-124.429
X254.762Y-123.444
X254.762Y-127.063
X254.825Y-88.328
X254.825Y-92.138
X258.889Y-126.555
T2
X65.786Y-129.052
X65.786Y-136.652
T3
X100.0Y-84.76
X100.0Y-100.0
X100.0Y-119.76
X100.0Y-135.0
X102.54Y-84.76
X102.54Y-100.0
X102.54Y-119.76
X102.54Y-135.0
X105.08Y-84.76
X105.08Y-100.0
X105.08Y-119.76
X105.08Y-135.0
X107.62Y-84.76
X107.62Y-100.0
X107.62Y-119.76
X107.62Y-135.0
X110.16Y-84.76
X110.16Y-100.0
X110.16Y-119.76
X110.16Y-135.0
X135.0Y-84.76
X135.0Y-100.0
X135.0Y-119.76
X135.0Y-135.0
X137.54Y-84.76
X137.54Y-100.0
X137.54Y-119.76
X137.54Y-135.0
X140.08Y-84.76
X140.08Y-100.0
X140.08Y-119.76
X140.08Y-135.0
X142.62Y-84.76
X142.62Y-100.0
X142.62Y-119.76
X142.62Y-135.0
X145.16Y-84.76
X145.16Y-100.0
X145.16Y-119.76
X145.16Y-135.0
X170.0Y-84.76
X170.0Y-100.0
X170.0Y-119.76
X170.0Y-135.0
X172.54Y-84.76
X172.54Y-100.0
X172.54Y-119.76
X172.54Y-135.0
X175.08Y-84.76
X175.08Y-100.0
X175.08Y-119.76
X175.08Y-135.0
X177.62Y-84.76
X177.62Y-100.0
X177.62Y-119.76
X177.62Y-135.0
X180.16Y-84.76
X180.16Y-100.0
X180.16Y-119.76
X180.16Y-135.0
X205.0Y-84.76
X205.0Y-100.0
X205.0Y-119.76
X205.0Y-135.0
X207.54Y-84.76
X207.54Y-100.0
X207.54Y-119.76
X207.54Y-135.0
X210.08Y-84.76
X210.08Y-100.0
X210.08Y-119.76
X210.08Y-135.0
X212.62Y-84.76
X212.62Y-100.0
X212.62Y-119.76
X212.62Y-135.0
X215.16Y-84.76
X215.16Y-100.0
X215.16Y-119.76
X215.16Y-135.0
X240.0Y-84.76
X240.0Y-100.0
X240.0Y-119.76
X240.0Y-135.0
X242.54Y-84.76
X242.54Y-100.0
X242.54Y-119.76
X242.54Y-135.0
X245.08Y-84.76
X245.08Y-100.0
X245.08Y-119.76
X245.08Y-135.0
X247.62Y-84.76
X247.62Y-100.0
X247.62Y-119.76
X247.62Y-135.0
X250.16Y-84.76
X250.16Y-100.0
X250.16Y-119.76
X250.16Y-135.0
T4
X51.054Y-120.373
X51.054Y-126.873
X55.554Y-120.373
X55.554Y-126.873
X93.218Y-83.772
X93.218Y-90.272
X93.218Y-118.773
X93.218Y-125.273
X97.718Y-83.772
X97.718Y-90.272
X97.718Y-118.773
X97.718Y-125.273
X112.442Y-94.564
X112.442Y-101.064
X112.446Y-129.466
X112.446Y-135.966
X116.942Y-94.564
X116.942Y-101.064
X116.946Y-129.466
X116.946Y-135.966
X128.219Y-83.772
X128.219Y-90.272
X128.219Y-118.773
X128.219Y-125.273
X132.719Y-83.772
X132.719Y-90.272
X132.719Y-118.773
X132.719Y-125.273
X147.443Y-94.564
X147.443Y-101.064
X147.447Y-129.466
X147.447Y-135.966
X151.943Y-94.564
X151.943Y-101.064
X151.947Y-129.466
X151.947Y-135.966
X163.22Y-83.772
X163.22Y-90.272
X163.22Y-118.773
X163.22Y-125.273
X167.72Y-83.772
X167.72Y-90.272
X167.72Y-118.773
X167.72Y-125.273
X182.419Y-94.564
X182.419Y-101.064
X182.448Y-129.466
X182.448Y-135.966
X186.919Y-94.564
X186.919Y-101.064
X186.948Y-129.466
X186.948Y-135.966
X198.222Y-83.772
X198.222Y-90.272
X198.222Y-118.773
X198.222Y-125.273
X202.722Y-83.772
X202.722Y-90.272
X202.722Y-118.773
X202.722Y-125.273
X217.424Y-129.466
X217.424Y-135.966
X217.445Y-94.539
X217.445Y-101.039
X221.924Y-129.466
X221.924Y-135.966
X221.945Y-94.539
X221.945Y-101.039
X233.223Y-83.772
X233.223Y-90.272
X233.223Y-118.798
X233.223Y-125.298
X237.723Y-83.772
X237.723Y-90.272
X237.723Y-118.798
X237.723Y-125.298
X252.421Y-94.539
X252.421Y-101.039
X252.425Y-129.466
X252.425Y-135.966
X256.921Y-94.539
X256.921Y-101.039
X256.925Y-129.466
X256.925Y-135.966
T5
X52.832Y-88.138
X52.832Y-90.678
X52.832Y-93.218
X52.832Y-95.758
X52.832Y-98.298
X52.832Y-100.838
X52.832Y-103.378
X52.832Y-105.918
X52.832Y-108.458
X52.832Y-110.998
X52.832Y-113.538
X52.832Y-116.078
X68.072Y-88.138
X68.072Y-90.678
X68.072Y-93.218
X68.072Y-95.758
X68.072Y-98.298
X68.072Y-100.838
X68.072Y-103.378
X68.072Y-105.918
X68.072Y-108.458
X68.072Y-110.998
X68.072Y-113.538
X68.072Y-116.078
T6
X36.639Y-131.445
X39.179Y-131.445
X41.719Y-131.445
X44.259Y-131.445
X44.577Y-83.439
X48.133Y-131.445
X50.673Y-131.445
X53.213Y-131.445
X55.753Y-131.445
X59.309Y-83.947
X61.849Y-83.947
X75.692Y-131.699
X76.2Y-88.392
X78.232Y-131.699
X78.74Y-88.392
X80.772Y-131.699
X81.28Y-88.392
X83.312Y-131.699
X83.82Y-88.392
T0
M30
